M48
;Layer_Color=6321
;FILE_FORMAT=2:5
INCH,LZ
;TYPE=PLATED
T1F00S00C0.01575
T2F00S00C0.02800
T3F00S00C0.03937
T4F00S00C0.04500
T5F00S00C0.05512
%
T01
X0262669Y0323339
Y0327669
X0267
Y0323339
X0271331
Y0327669
Y0332
Y0336331
Y0340661
X0267
Y0336331
X0262669
Y0340661
Y0332
X0267
T02
X03218Y0308
X02186Y03075
X02435Y03219
X02447Y03307
X02296Y03373
X02896Y0351
X0309Y0321
X0323
T03
X0333Y0291
Y0301
Y0311
X02005Y03075
Y02975
Y03175
Y03275
Y03375
Y03475
Y03575
X0333Y0351
Y0341
Y0331
Y0321
T04
X0197Y0262
X0207
X0217
T05
X0243972Y02645
X0303028
M30
